<svg xmlns="http://www.w3.org/2000/svg" viewBox="0 0 512 512"><path d="m322.4 140.9-44.1-76.8H162.6a29 29 0 0 0-24.9 14.5L44.1 241.7a29 29 0 0 0 0 28.7l35.6 62.1 44-76.4 66.2-115.2z" fill="#f8bb16"/><path d="M468.2 241.7 374.6 78.6a29 29 0 0 0-24.9-14.5h-71.4l44.1 76.8 66.2 115.2-66.2 115.2h88l57.8-100.9c5-8.9 5-19.8 0-28.7" fill="#ea4334"/><path d="M410.3 371.2H189.7L123.5 256l-44 76.4 58 101a29 29 0 0 0 24.9 14.5h187.1c10.3 0 19.9-5.5 24.9-14.5z" fill="#0074bc"/><path d="M322.2 371.2H189.6L123.5 256l66.2-115.2h132.5L388.6 256zM256 198.5a57.5 57.5 0 1 0 0 115.2 57.5 57.5 0 1 0 0-115.2" fill="#e2e3e4"/></svg>